HIERARCHY
ROOT Hips
{
    OFFSET 0.000000 0.000000 0.000000
    CHANNELS 6 Xposition Yposition Zposition Zrotation Xrotation Yrotation
    JOINT Spine
    {
        OFFSET -0.000000 14.517291 0.000000
        CHANNELS 3 Zrotation Xrotation Yrotation
        JOINT Spine1
        {
            OFFSET -0.000000 37.558300 0.000000
            CHANNELS 3 Zrotation Xrotation Yrotation
            JOINT Neck
            {
                OFFSET -0.000000 37.404057 3.400369
                CHANNELS 3 Zrotation Xrotation Yrotation
                JOINT Head
                {
                    OFFSET -0.000000 24.785618 -3.540803
                    CHANNELS 3 Zrotation Xrotation Yrotation
                    End Site
                    {
                        OFFSET -0.000000 35.408028 0.000000
                    }
                }
            }
            JOINT LeftShoulder
            {
                OFFSET 6.992933 33.973492 -0.192664
                CHANNELS 3 Zrotation Xrotation Yrotation
                JOINT LeftArm
                {
                    OFFSET 21.527611 0.000000 0.000000
                    CHANNELS 3 Zrotation Xrotation Yrotation
                    JOINT LeftForeArm
                    {
                        OFFSET 56.353916 0.000000 0.000000
                        CHANNELS 3 Zrotation Xrotation Yrotation
                        JOINT LeftHand
                        {
                            OFFSET 47.774071 0.000000 0.000000
                            CHANNELS 3 Zrotation Xrotation Yrotation
                            End Site
                            {
                                OFFSET 26.556021 0.000000 0.000000
                            }
                        }
                    }
                }
            }
            JOINT RightShoulder
            {
                OFFSET -7.065357 33.973492 -0.192664
                CHANNELS 3 Zrotation Xrotation Yrotation
                JOINT RightArm
                {
                    OFFSET -21.527611 0.000000 0.000000
                    CHANNELS 3 Zrotation Xrotation Yrotation
                    JOINT RightForeArm
                    {
                        OFFSET -56.353916 0.000000 0.000000
                        CHANNELS 3 Zrotation Xrotation Yrotation
                        JOINT RightHand
                        {
                            OFFSET -47.774071 0.000000 0.000000
                            CHANNELS 3 Zrotation Xrotation Yrotation
                            End Site
                            {
                                OFFSET -26.556021 0.000000 0.000000
                            }
                        }
                    }
                }
            }
        }
    }
    JOINT LeftUpLeg
    {
        OFFSET 17.704014 0.000000 0.000000
        CHANNELS 3 Zrotation Xrotation Yrotation
        JOINT LeftLeg
        {
            OFFSET -0.000000 -81.181816 0.000000
            CHANNELS 3 Zrotation Xrotation Yrotation
            JOINT LeftFoot
            {
                OFFSET -0.000000 -62.821102 0.000000
                CHANNELS 3 Zrotation Xrotation Yrotation
                JOINT LeftToeBase
                {
                    OFFSET -0.000000 -11.507608 26.556021
                    CHANNELS 3 Zrotation Xrotation Yrotation
                    End Site
                    {
                        OFFSET -0.000000 0.000000 7.081605
                    }
                }
            }
        }
    }
    JOINT RightUpLeg
    {
        OFFSET -17.704014 0.000000 0.000000
        CHANNELS 3 Zrotation Xrotation Yrotation
        JOINT RightLeg
        {
            OFFSET -0.000000 -81.181816 0.000000
            CHANNELS 3 Zrotation Xrotation Yrotation
            JOINT RightFoot
            {
                OFFSET -0.000000 -62.821102 0.000000
                CHANNELS 3 Zrotation Xrotation Yrotation
                JOINT RightToeBase
                {
                    OFFSET -0.000000 -11.507608 26.556021
                    CHANNELS 3 Zrotation Xrotation Yrotation
                    End Site
                    {
                        OFFSET -0.000000 0.000000 7.081605
                    }
                }
            }
        }
    }
}
MOTION
Frames:    6
Frame Time:    0.008333
-10.907784    151.046234    -6.430083    0.409715    0.171671    23.832064    -3.186872    2.389341    8.185462    -1.646547    -1.055089    2.691289    -1.697798    5.097757    -16.517567    13.846698    -7.084853    -14.260334    1.235743    5.364940    -9.635492    -35.269363    20.860880    -57.021561    8.217522    -40.682529    -100.226944    -17.141777    -30.916256    -14.506001    -0.400735    11.018068    0.694030    38.082756    13.853041    47.611023    -39.953598    -33.394882    44.134651    12.996592    -14.411716    33.158131    -1.413479    -33.932709    -27.175430    -15.086817    31.010540    -20.044296    -3.790806    -2.956286    29.642647    0.000000    0.000000    0.000000    2.478658    7.583044    -19.963285    3.780738    31.214048    -4.680658    1.713279    -34.668015    -8.168294    0.000000    0.000000    0.000000    
-10.886414    151.050903    -6.439068    0.404586    0.173347    23.815573    -3.185967    2.382278    8.180846    -1.631182    -1.047783    2.690064    -1.691604    5.076968    -16.502335    13.830004    -7.055057    -14.251526    1.264673    5.343220    -9.664058    -35.193298    20.924164    -57.024136    8.083705    -40.451580    -100.526123    -17.180378    -30.741951    -14.533446    -0.390746    11.021926    0.692216    38.061939    13.842644    47.644073    -39.943790    -33.381142    44.141651    12.985586    -14.403491    33.133404    -1.410485    -33.929340    -27.173889    -15.083987    31.004751    -20.038950    -3.803296    -2.979517    29.660902    0.000000    0.000000    0.000000    2.465964    7.572539    -19.968210    3.848068    31.221886    -4.809711    1.644510    -34.665455    -8.191084    0.000000    0.000000    0.000000    
-10.864756    151.054642    -6.452918    0.402363    0.174745    23.795414    -3.197162    2.381539    8.180252    -1.588479    -1.049058    2.690161    -1.708901    5.079434    -16.494122    13.833709    -7.046500    -14.241444    1.272086    5.337392    -9.702598    -35.131927    20.964712    -57.012257    7.872088    -40.193832    -100.886108    -16.996939    -30.656311    -14.414845    -0.405922    11.010452    0.702814    38.061066    13.838149    47.653484    -39.925518    -33.382271    44.157402    12.993251    -14.400329    33.166245    -1.409140    -33.931145    -27.175859    -15.084450    31.004501    -20.044968    -3.834873    -3.004457    29.684469    0.000000    0.000000    0.000000    2.451434    7.571623    -19.951334    3.855604    31.217537    -4.810319    1.649551    -34.665047    -8.176359    0.000000    0.000000    0.000000    
-10.839542    151.056168    -6.462592    0.398933    0.172288    23.777754    -3.185934    2.384673    8.172666    -1.591794    -1.066262    2.687402    -1.672661    5.102085    -16.469280    13.808413    -7.050048    -14.224120    1.314082    5.357249    -9.732612    -35.089947    20.995548    -57.006680    7.678234    -39.940052    -101.205345    -17.014677    -30.523411    -14.444179    -0.385906    11.030031    0.723791    38.035404    13.828368    47.672684    -39.931099    -33.386086    44.143490    13.001873    -14.404584    33.174282    -1.412393    -33.926083    -27.172630    -15.072961    31.008839    -20.058237    -3.857426    -3.036402    29.717417    0.000000    0.000000    0.000000    2.450371    7.610920    -19.944746    4.051817    31.073378    -5.195172    1.439020    -34.662159    -8.217659    0.000000    0.000000    0.000000    
-10.814326    151.055542    -6.473051    0.396262    0.172694    23.754473    -3.182552    2.370531    8.170184    -1.569116    -1.030781    2.687451    -1.694154    5.059272    -16.470144    13.824673    -7.003427    -14.224407    1.317215    5.334847    -9.740192    -35.048214    21.041874    -57.003239    7.452329    -39.692223    -101.565491    -16.863298    -30.465261    -14.335630    -0.389092    11.018726    0.714721    38.028904    13.820164    47.710400    -39.915279    -33.380226    44.163727    13.002356    -14.397240    33.167042    -1.418082    -33.925766    -27.165321    -15.060068    31.021759    -20.076401    -3.866781    -3.067130    29.746284    0.000000    0.000000    0.000000    2.431134    7.605252    -19.932468    4.055128    31.088247    -5.187440    1.442678    -34.666985    -8.198662    0.000000    0.000000    0.000000    
-10.789627    151.055939    -6.476214    0.388047    0.163389    23.736048    -3.169167    2.369858    8.165350    -1.557716    -1.025633    2.686115    -1.686553    5.049055    -16.461601    13.823746    -6.972682    -14.219904    1.338163    5.330975    -9.747440    -35.040215    21.074734    -57.003807    7.172486    -39.418400    -101.935219    -16.648521    -30.448244    -14.200885    -0.386776    11.022733    0.727979    38.029903    13.808051    47.717484    -39.897419    -33.384796    44.195152    12.972383    -14.408232    33.150951    -1.414137    -33.917618    -27.164145    -15.062539    31.029999    -20.044670    -3.857241    -3.082579    29.739035    0.000000    0.000000    0.000000    2.411538    7.575876    -19.912886    3.891472    31.230953    -4.805357    1.632634    -34.668396    -8.181621    0.000000    0.000000    0.000000    
